{"title":"Firangi 2017 Hindi Pre-DVDRip x264 AAC { TaRa }.mkv","magnet":"magnet:?xt=urn:btih:0ed869ac11886471c1c3a466ed75ed5054ffc6db&dn=Firangi+2017+Hindi+Pre-DVDRip+x264+AAC+%7B+TaRa+%7D.mkv&tr=udp%3A%2F%2Ftracker.leechers-paradise.org%3A6969&tr=udp%3A%2F%2Fzer0day.ch%3A1337&tr=udp%3A%2F%2Fopen.demonii.com%3A1337&tr=udp%3A%2F%2Ftracker.coppersurfer.tk%3A6969&tr=udp%3A%2F%2Fexodus.desync.com%3A6969","uploader":"SkTaRa","categoryP":"video","categoryS":"movies","size":"732558410","seeders":"302","leechers":"253","description":"===================================================================\r\nGeneral\r\nComplete name               : Firangi 2017 Hindi Pre-DVDRip x264 AAC { TaRa }.mkv\r\nFormat                      : Matroska\r\nFormat version              : Version 4 / Version 2\r\nFile size                   : 698 MiB\r\nDuration                    : 2 h 13 min\r\nOverall bit rate            : 732 kb/s\r\n===================================================================\r\nVideo\r\nID                          : 1\r\nFormat                      : AVC\r\nFormat/Info                 : Advanced Video Codec\r\nFormat profile              : <a href=\"/cdn-cgi/l/email-protection\" class=\"__cf_email__\" data-cfemail=\"7e361719163e324d504f\">[email&#xA0;protected]</a>\r\nFormat settings, CABAC      : Yes\r\nFormat settings, ReFrames   : 8 frames\r\nCodec ID                    : V_MPEG4/ISO/AVC\r\nDuration                    : 2 h 13 min\r\nBit rate                    : 650 kb/s\r\nWidth                       : 640 pixels\r\nHeight                      : 272 pixels\r\nDisplay aspect ratio        : 2.35:1\r\nFrame rate mode             : Constant\r\nFrame rate                  : 25.000 FPS\r\nColor space                 : YUV\r\nChroma subsampling          : 4:2:0\r\nBit depth                   : 8 bits\r\nScan type                   : Progressive\r\nBits/(Pixel*Frame)          : 0.149\r\nStream size                 : 620 MiB (89%)\r\nTitle                       :\nLanguage                    : Hindi\r\nDefault                     : Yes\r\nForced                      : No\r\n===================================================================\r\nAudio\r\nID                          : 2\r\nFormat                      : AAC\r\nFormat/Info                 : Advanced Audio Codec\r\nFormat profile              : LC\r\nCodec ID                    : A_AAC\r\nDuration                    : 2 h 13 min\r\nBit rate                    : 80.0 kb/s\r\nChannel(s)                  : 2 channels\r\nChannel positions           : Front: L R\r\nSampling rate               : 44.1 kHz\r\nFrame rate                  : 43.066 FPS (1024 spf)\r\nCompression mode            : Lossy\r\nDelay relative to video     : 10 ms\r\nStream size                 : 76.3 MiB (11%)\r\nTitle                       :\nLanguage                    : Hindi\r\nDefault                     : Yes\r\nForced                      : No\r\n===================================================================","last_updated":"2017-12-02T12:06:48.018Z","parsed":{"xt":"urn:btih:0ed869ac11886471c1c3a466ed75ed5054ffc6db","dn":"Firangi 2017 Hindi Pre-DVDRip x264 AAC { TaRa }.mkv","tr":["udp://exodus.desync.com:6969","udp://open.demonii.com:1337","udp://tracker.coppersurfer.tk:6969","udp://tracker.leechers-paradise.org:6969","udp://zer0day.ch:1337"],"infoHash":"0ed869ac11886471c1c3a466ed75ed5054ffc6db","infoHashBuffer":{"type":"Buffer","data":[14,216,105,172,17,136,100,113,193,195,164,102,237,117,237,80,84,255,198,219]},"name":"Firangi 2017 Hindi Pre-DVDRip x264 AAC { TaRa }.mkv","announce":["udp://exodus.desync.com:6969","udp://open.demonii.com:1337","udp://tracker.coppersurfer.tk:6969","udp://tracker.leechers-paradise.org:6969","udp://zer0day.ch:1337"],"urlList":[]}}